<?xml version="1.0" standalone="no"?>
<!DOCTYPE svg PUBLIC "-//W3C//DTD SVG 20010904//EN"
 "http://www.w3.org/TR/2001/REC-SVG-20010904/DTD/svg10.dtd">
<svg version="1.0" xmlns="http://www.w3.org/2000/svg"
 width="184.000000pt" height="184.000000pt" viewBox="0 0 184.000000 184.000000"
 preserveAspectRatio="xMidYMid meet">
<metadata>
Created by potrace 1.14, written by Peter Selinger 2001-2017
</metadata>
<g transform="translate(0.000000,184.000000) scale(0.100000,-0.100000)"
fill="#000000" stroke="none">
<path d="M221 1754 c-77 -17 -124 -44 -161 -96 -53 -72 -55 -99 -55 -648 0
-498 1 -506 23 -560 25 -63 53 -98 100 -126 19 -11 35 -29 38 -44 16 -80 74
-147 151 -174 70 -25 162 -29 678 -28 574 0 629 3 705 42 76 39 116 109 129
229 13 125 6 947 -9 1011 -17 71 -49 122 -102 158 -34 23 -46 39 -55 75 -24
88 -92 141 -206 162 -105 19 -1145 18 -1236 -1z"/>
</g>
</svg>
