<svg width="62" height="57" viewBox="0 0 62 57" fill="none" xmlns="http://www.w3.org/2000/svg">
<rect x="4.94922" y="6.70605" width="56.9356" height="50.2938" rx="9.38817" fill="#6C5FBC"/>
<rect x="1.35713" y="1.35713" width="54.2213" height="47.5795" rx="8.03104" fill="#DBD9EE" stroke="#6C5FBC" stroke-width="2.71427"/>
<path d="M43.9453 16.2339L13.0961 16.0975" stroke="#6C5FBC" stroke-width="2.80765" stroke-linecap="round" stroke-linejoin="round"/>
<path d="M43.9307 22.4104L37.0671 22.3758C34.2282 22.3615 31.9311 19.584 31.9402 16.1767C31.9494 12.7694 34.2614 10.0151 37.1003 10.0294L43.9639 10.064" stroke="#6C5FBC" stroke-width="2.80765" stroke-linecap="round" stroke-linejoin="round"/>
<path d="M23.389 35.996L14.4236 35.8907C13.689 35.887 13.0732 35.1627 13.0589 34.2812L12.9983 31.9571C12.9841 31.0355 13.604 30.2573 14.372 30.2612L23.2372 30.3659L23.389 35.996Z" stroke="#6C5FBC" stroke-width="2.80765" stroke-linecap="round" stroke-linejoin="round"/>
<path d="M37.4686 39.3439L24.7966 39.18C24.062 39.1763 23.4462 38.4523 23.4318 37.571L23.2676 30.3406L43.8535 30.6044L43.8677 31.5257C43.9728 35.892 41.0916 39.4022 37.4686 39.3439Z" stroke="#6C5FBC" stroke-width="2.80765" stroke-linecap="round" stroke-linejoin="round"/>
</svg>
