<svg width="26" height="26" viewBox="0 0 26 26" fill="none" xmlns="http://www.w3.org/2000/svg">
<g id="Cross">
<circle id="Ellipse 2037" cx="12.7359" cy="13.2439" r="12.4444" fill="#EB3F5E"/>
<g id="Group 427320272">
<path id="Vector" d="M8.59101 18.5816C8.28887 18.5816 7.98674 18.4703 7.74821 18.2317C7.28706 17.7706 7.28706 17.0073 7.74821 16.5461L16.7487 7.54569C17.2098 7.08454 17.9731 7.08454 18.4343 7.54569C18.8954 8.00685 18.8954 8.77014 18.4343 9.23129L9.43381 18.2317C9.21118 18.4703 8.89314 18.5816 8.59101 18.5816Z" fill="#F9F9F9"/>
<path id="Vector_2" d="M17.5915 18.5816C17.2893 18.5816 16.9872 18.4703 16.7487 18.2317L7.74821 9.23129C7.28706 8.77014 7.28706 8.00685 7.74821 7.54569C8.20936 7.08454 8.97265 7.08454 9.43381 7.54569L18.4343 16.5461C18.8954 17.0073 18.8954 17.7706 18.4343 18.2317C18.1957 18.4703 17.8936 18.5816 17.5915 18.5816Z" fill="#F9F9F9"/>
</g>
</g>
</svg>
