<svg width="87" height="82" viewBox="0 0 87 82" fill="none" xmlns="http://www.w3.org/2000/svg">
<path d="M2.00024 66.4904C4.30175 70.6606 7.52243 76.2079 10.4656 79.8826M10.4656 79.8826C10.8046 80.3061 13.0892 76.9362 13.1814 76.7719C15.2071 73.1709 16.6994 69.4153 18.1382 65.555M10.4656 79.8826C3.23725 55.0285 13.0525 30.7691 29.8949 23.2286C31.5642 22.4812 33.3818 21.6695 35.2639 21.0231M35.2639 21.0231C38.261 19.9936 41.4215 19.3833 44.406 20.1195C47.1604 20.7991 50.4624 22.8446 51.2599 25.7036C52.7494 31.0446 46.7446 35.2901 41.7736 33.3283C37.4053 31.6045 34.0964 25.5199 35.2639 21.0231ZM35.2639 21.0231C35.2885 20.9282 35.3151 20.8341 35.3437 20.7407C42.2571 -1.79933 69.9745 -2.17308 85.0002 9.92804" stroke="white" stroke-width="3.28334" stroke-miterlimit="1.5" stroke-linecap="round" stroke-linejoin="round"/>
</svg>
